<?xml version="1.0" encoding="UTF-8"?>
<!DOCTYPE svg PUBLIC "-//W3C//DTD SVG 1.1//EN" "http://www.w3.org/Graphics/SVG/1.1/DTD/svg11.dtd">
<svg xmlns="http://www.w3.org/2000/svg" version="1.1" width="1600px" height="778px" style="shape-rendering:geometricPrecision; text-rendering:geometricPrecision; image-rendering:optimizeQuality; fill-rule:evenodd; clip-rule:evenodd" xmlns:xlink="http://www.w3.org/1999/xlink">
<g><path style="opacity:0.997" fill="#e4353d" d="M -0.5,-0.5 C 148.167,-0.5 296.833,-0.5 445.5,-0.5C 453.241,8.74556 461.574,17.5789 470.5,26C 482.527,35.0149 494.86,43.6815 507.5,52C 513.362,58.2116 520.029,63.2116 527.5,67C 528.257,68.5122 529.257,69.8455 530.5,71C 535.456,73.6366 540.123,76.6366 544.5,80C 548.128,84.2457 552.628,87.4123 558,89.5C 561.145,90.4113 564.312,91.2446 567.5,92C 576.642,98.5712 586.642,103.571 597.5,107C 611.512,110.002 625.512,113.336 639.5,117C 650.968,117.77 662.301,119.436 673.5,122C 706.158,121.335 738.825,120.668 771.5,120C 816.549,121.913 861.215,126.913 905.5,135C 930.426,143.233 955.76,150.233 981.5,156C 987.65,158.134 993.817,160.301 1000,162.5C 1015.94,169.638 1031.61,177.305 1047,185.5C 1061.39,196.738 1075.89,207.738 1090.5,218.5C 1081.41,218.022 1072.74,219.356 1064.5,222.5C 1059.12,224.186 1053.79,226.186 1048.5,228.5C 1032.54,231.423 1018.54,238.256 1006.5,249C 998.873,255.92 992.373,263.086 987,270.5C 984.084,280.783 979.584,290.283 973.5,299C 973.645,299.772 973.978,300.439 974.5,301C 972.408,302.377 970.742,304.21 969.5,306.5C 967.87,310.619 966.037,314.619 964,318.5C 955.154,331.341 947.154,344.674 940,358.5C 935.694,373.107 930.027,387.107 923,400.5C 918.733,415.3 914.067,429.966 909,444.5C 902.544,458.7 896.377,473.033 890.5,487.5C 878.757,511.32 864.257,533.32 847,553.5C 830.533,577.44 812.866,600.44 794,622.5C 787.128,629.041 779.961,635.207 772.5,641C 767.652,646.185 763.152,651.685 759,657.5C 752.806,663.694 746.64,669.86 740.5,676C 738.913,676.862 737.246,677.529 735.5,678C 730.529,683.641 725.529,689.308 720.5,695C 707.778,703.6 696.945,714.1 688,726.5C 679.129,735.472 669.796,744.139 660,752.5C 652.919,761.404 645.419,769.737 637.5,777.5C 424.833,777.5 212.167,777.5 -0.5,777.5C -0.5,518.167 -0.5,258.833 -0.5,-0.5 Z"/></g>
<g><path style="opacity:0.997" fill="#f16a61" d="M 445.5,-0.5 C 830.167,-0.5 1214.83,-0.5 1599.5,-0.5C 1599.5,116.833 1599.5,234.167 1599.5,351.5C 1598.88,351.611 1598.38,351.944 1598,352.5C 1597.58,351.244 1596.75,350.577 1595.5,350.5C 1595.5,349.167 1594.83,348.5 1593.5,348.5C 1593.5,348.167 1593.5,347.833 1593.5,347.5C 1593.72,345.319 1592.88,343.653 1591,342.5C 1590.54,343.094 1590.37,343.761 1590.5,344.5C 1580.07,334.243 1569.07,324.409 1557.5,315C 1535.94,302.568 1514.6,289.735 1493.5,276.5C 1486.34,274.399 1480,270.899 1474.5,266C 1472.85,265.392 1471.18,264.892 1469.5,264.5C 1470.85,263.176 1470.68,262.176 1469,261.5C 1462.44,259.017 1455.94,256.351 1449.5,253.5C 1448.89,253.624 1448.56,253.957 1448.5,254.5C 1440.08,250.807 1431.41,247.473 1422.5,244.5C 1419.89,243.731 1417.22,243.397 1414.5,243.5C 1414.5,242.5 1414.5,241.5 1414.5,240.5C 1411.65,239.742 1408.98,239.742 1406.5,240.5C 1401.88,240.456 1397.55,239.456 1393.5,237.5C 1392.2,235.972 1390.53,234.972 1388.5,234.5C 1381.55,232.135 1374.39,230.135 1367,228.5C 1366.24,228.57 1365.74,228.903 1365.5,229.5C 1364.83,229.5 1364.17,229.5 1363.5,229.5C 1362.43,227.716 1360.76,226.549 1358.5,226C 1355.21,225.174 1351.87,224.674 1348.5,224.5C 1343.41,222.812 1338.08,221.646 1332.5,221C 1332.83,220.667 1333.17,220.333 1333.5,220C 1329.21,218.652 1324.88,217.485 1320.5,216.5C 1299.28,213.73 1277.94,211.396 1256.5,209.5C 1250.35,208.535 1244.02,207.869 1237.5,207.5C 1196.59,209.087 1154.59,212.087 1111.5,216.5C 1106.98,217.44 1102.65,217.44 1098.5,216.5C 1095.76,217.046 1093.1,217.712 1090.5,218.5C 1075.89,207.738 1061.39,196.738 1047,185.5C 1031.61,177.305 1015.94,169.638 1000,162.5C 993.817,160.301 987.65,158.134 981.5,156C 955.76,150.233 930.426,143.233 905.5,135C 861.215,126.913 816.549,121.913 771.5,120C 738.825,120.668 706.158,121.335 673.5,122C 662.301,119.436 650.968,117.77 639.5,117C 625.512,113.336 611.512,110.002 597.5,107C 586.642,103.571 576.642,98.5712 567.5,92C 564.312,91.2446 561.145,90.4113 558,89.5C 552.628,87.4123 548.128,84.2457 544.5,80C 540.123,76.6366 535.456,73.6366 530.5,71C 529.257,69.8455 528.257,68.5122 527.5,67C 520.029,63.2116 513.362,58.2116 507.5,52C 494.86,43.6815 482.527,35.0149 470.5,26C 461.574,17.5789 453.241,8.74556 445.5,-0.5 Z"/></g>
<g><path style="opacity:0.004" fill="#f16b61" d="M 1256.5,209.5 C 1255.83,210.167 1255.83,210.167 1256.5,209.5 Z"/></g>
<g><path style="opacity:0.004" fill="#f16b61" d="M 1111.5,216.5 C 1112.83,217.167 1112.83,217.167 1111.5,216.5 Z"/></g>
<g><path style="opacity:0.004" fill="#e3353c" d="M 1064.5,222.5 C 1065.83,223.167 1065.83,223.167 1064.5,222.5 Z"/></g>
<g><path style="opacity:0.267" fill="#fa2822" d="M 1348.5,224.5 C 1351.87,224.674 1355.21,225.174 1358.5,226C 1360.76,226.549 1362.43,227.716 1363.5,229.5C 1358.14,228.603 1353.14,226.936 1348.5,224.5 Z"/></g>
<g><path style="opacity:0.91" fill="#f45a51" d="M 1365.5,229.5 C 1365.74,228.903 1366.24,228.57 1367,228.5C 1374.39,230.135 1381.55,232.135 1388.5,234.5C 1386.9,234.232 1385.57,234.566 1384.5,235.5C 1378.07,233.749 1371.74,231.749 1365.5,229.5 Z"/></g>
<g><path style="opacity:0.122" fill="#f8322d" d="M 1384.5,235.5 C 1385.57,234.566 1386.9,234.232 1388.5,234.5C 1390.53,234.972 1392.2,235.972 1393.5,237.5C 1390.42,237.084 1387.42,236.417 1384.5,235.5 Z"/></g>
<g><path style="opacity:0.715" fill="#f64d46" d="M 1414.5,243.5 C 1411.74,242.488 1409.08,241.488 1406.5,240.5C 1408.98,239.742 1411.65,239.742 1414.5,240.5C 1414.5,241.5 1414.5,242.5 1414.5,243.5 Z"/></g>
<g><path style="opacity:0.627" fill="#f83f37" d="M 1448.5,254.5 C 1448.56,253.957 1448.89,253.624 1449.5,253.5C 1455.94,256.351 1462.44,259.017 1469,261.5C 1470.68,262.176 1470.85,263.176 1469.5,264.5C 1462.51,261.193 1455.51,257.86 1448.5,254.5 Z"/></g>
<g><path style="opacity:0.213" fill="#f64841" d="M 1593.5,347.5 C 1591.81,347.144 1590.81,346.144 1590.5,344.5C 1590.37,343.761 1590.54,343.094 1591,342.5C 1592.88,343.653 1593.72,345.319 1593.5,347.5 Z"/></g>
<g><path style="opacity:0.106" fill="#f9322e" d="M 1593.5,348.5 C 1594.83,348.5 1595.5,349.167 1595.5,350.5C 1594.17,350.5 1593.5,349.833 1593.5,348.5 Z"/></g>
<g><path style="opacity:1" fill="#f64c44" d="M 1595.5,350.5 C 1596.75,350.577 1597.58,351.244 1598,352.5C 1598.38,351.944 1598.88,351.611 1599.5,351.5C 1599.5,352.833 1599.5,354.167 1599.5,355.5C 1598.78,354.449 1597.78,353.782 1596.5,353.5C 1595.6,352.791 1595.26,351.791 1595.5,350.5 Z"/></g>
<g><path style="opacity:0.162" fill="#fd130f" d="M 1596.5,353.5 C 1597.78,353.782 1598.78,354.449 1599.5,355.5C 1599.5,356.167 1599.5,356.833 1599.5,357.5C 1598.5,357.5 1597.5,357.5 1596.5,357.5C 1596.5,356.167 1596.5,354.833 1596.5,353.5 Z"/></g>
<g><path style="opacity:0.004" fill="#e3353c" d="M 890.5,487.5 C 891.833,488.167 891.833,488.167 890.5,487.5 Z"/></g>
</svg>
